<svg xmlns="http://www.w3.org/2000/svg" width="32" height="32" viewBox="0 0 32 32" fill="none">
    <rect width="32" height="32" fill="black"/>
    <path d="M10.6382 24.25L21.6125 24.25C23.6302 24.25 24.9092 22.0735 23.894 20.3139L17.1211 8.57489C16.6791 7.80838 15.5715 7.80838 15.1295 8.57489L8.35525 20.3139C7.34148 22.0707 8.6204 24.25 10.6368 24.25L10.6382 24.25ZM17.1266 12.0953L18.6016 14.9499L22.1607 21.3152C22.3955 21.7226 22.1055 22.2447 21.6138 22.2447L17.128 22.2447L17.128 12.0939L17.1266 12.0953ZM10.0927 21.3166L13.6504 14.9485L15.1254 12.0953L15.1254 22.2461L10.6396 22.2461C10.1479 22.2461 9.85788 21.724 10.0927 21.3166Z" fill="white"/>
</svg>
