<svg width="12" height="12" viewBox="0 0 12 12" xmlns="http://www.w3.org/2000/svg">
    <path opacity="0.2" d="M9.64164 1.15672C9.97359 0.824807 10.5109 0.824784 10.8428 1.15672C11.1747 1.48865 11.1747 2.02595 10.8428 2.35789L7.20121 5.99949L10.8438 9.64207L10.9024 9.70652C11.1745 10.0404 11.1549 10.5321 10.8438 10.8432C10.5326 11.1544 10.04 11.1741 9.70609 10.9018L9.64262 10.8432L6.00004 7.20066L2.35746 10.8432C2.02553 11.1751 1.48823 11.1751 1.15629 10.8432C0.824356 10.5113 0.82438 9.97402 1.15629 9.64207L4.79887 5.99949L1.15727 2.35789C0.825321 2.02594 0.825321 1.48866 1.15727 1.15672C1.48922 0.824807 2.0265 0.824784 2.35844 1.15672L6.00004 4.79832L9.64164 1.15672Z" />
</svg>
