<svg xmlns="http://www.w3.org/2000/svg" xmlns:xlink="http://www.w3.org/1999/xlink" width="8px" height="8px" viewBox="0 0 8 8" version="1.1">
    <g id="surface1">
        <path d="M 6.429688 0.769531 C 6.648438 0.550781 7.007812 0.550781 7.230469 0.769531 C 7.449219 0.992188 7.449219 1.351562 7.230469 1.570312 L 4.800781 4 L 7.230469 6.429688 L 7.269531 6.472656 C 7.449219 6.695312 7.4375 7.019531 7.230469 7.230469 C 7.023438 7.4375 6.691406 7.449219 6.472656 7.269531 L 6.429688 7.230469 L 4 4.800781 L 1.570312 7.230469 C 1.351562 7.449219 0.992188 7.449219 0.769531 7.230469 C 0.550781 7.007812 0.550781 6.648438 0.769531 6.429688 L 3.199219 4 L 0.773438 1.570312 C 0.550781 1.351562 0.550781 0.992188 0.773438 0.769531 C 0.992188 0.550781 1.351562 0.550781 1.574219 0.769531 L 4 3.199219 Z M 6.429688 0.769531 "/>
    </g>
</svg>
