<svg width="66" height="71" viewBox="0 0 66 71" fill="none" xmlns="http://www.w3.org/2000/svg">
    <path d="M5.45587 36.9369L6.72412 38.6589L8.37205 36.1866L10.4178 39.0336L14.0395 34.5103L19.3059 39.9425L29.335 37.9313L37.6011 39.9425L42.5548 37.2264L51.9789 38.8538L57.6863 35.7033L60.7453 37.9313L63.3221 37.0149C63.3221 37.0149 64.1868 47.5876 55.6104 52.0019C47.034 56.4161 5.91584 56.8292 5.45587 36.9369Z" fill="#967439"/>
    <path d="M5.45587 36.9369L6.72412 38.6589L8.37205 36.1866L10.4178 39.0336L14.0395 34.5103L19.3059 39.9425L29.335 37.9313L37.6011 39.9425L42.5548 37.2264L51.9789 38.8538L57.6863 35.7033L60.7453 37.9313L63.3221 37.0149C63.3221 37.0149 64.1868 47.5876 55.6104 52.0019C47.034 56.4161 5.91585 56.8292 5.45587 36.9369Z" stroke="#68502C" stroke-width="0.640523" stroke-linecap="round" stroke-linejoin="round"/>
    <path d="M46.3556 29.465C46.3556 29.465 49.1385 26.2129 54.0153 27.4186C60.9607 29.1355 65.8748 34.9397 65.527 36.8059C65.2216 38.4448 57.803 36.5608 52.5969 38.4714C47.3908 40.3822 42.9892 32.6621 46.3556 29.465Z" fill="#FFAA12"/>
    <path d="M47.0126 36.8663C46.1554 35.1384 46.1138 33.0947 47.4331 31.8418C47.4331 31.8418 49.8711 28.9914 54.1456 30.0479C59.4489 31.3591 63.4016 35.3904 64.1277 37.487C64.9368 37.4025 65.4515 37.2126 65.5271 36.806C65.8754 34.9398 60.9608 29.1349 54.0161 27.4176C49.1389 26.2124 46.355 29.4645 46.355 29.4645C44.3928 31.3296 45.0714 34.7341 47.0126 36.8663Z" fill="#FBCA1D"/>
    <path d="M57.5087 30.3159C57.5087 30.3159 53.2309 27.8734 50.0837 29.1416" stroke="#FDE63B" stroke-width="0.885156" stroke-linecap="round" stroke-linejoin="round"/>
    <path d="M46.3556 29.465C46.3556 29.465 49.1385 26.2129 54.0153 27.4186C60.9607 29.1355 65.8748 34.9397 65.527 36.8059C65.2216 38.4448 57.803 36.5608 52.5969 38.4714C47.3908 40.3822 42.9892 32.6621 46.3556 29.465Z" stroke="#CE7500" stroke-width="0.64375" stroke-miterlimit="10"/>
    <path d="M18.7467 26.7452C18.7467 26.7452 15.493 23.964 10.8622 25.9115C4.26741 28.6852 0.313055 35.1815 0.946273 36.9712C1.50231 38.5429 8.53882 35.5309 13.9783 36.6109C19.4177 37.6908 22.5683 29.3813 18.7467 26.7452Z" fill="#FFAA12"/>
    <path d="M19.2463 34.1583C19.825 32.3184 19.5491 30.2931 18.0513 29.2602C18.0513 29.2602 15.2009 26.8224 11.1418 28.5292C6.10614 30.6473 2.82663 35.2429 2.43465 37.4268C1.62223 37.4688 1.08436 37.3612 0.946559 36.9711C0.312873 35.1817 4.26765 28.6845 10.8618 25.9106C15.4929 23.9634 18.7476 26.7443 18.7476 26.7443C20.9754 28.2825 20.8332 31.7509 19.2463 34.1583Z" fill="#FBCA1D"/>
    <path d="M12.4961 27.0933C12.4961 27.0933 8.65444 27.9247 5.38196 31.5931" stroke="#FDE63B" stroke-width="0.885156" stroke-linecap="round" stroke-linejoin="round"/>
    <path d="M18.9761 26.9901C18.9761 26.9901 15.7224 24.2088 11.0916 26.1563C4.49678 28.9301 0.542426 35.4264 1.17564 37.216C1.73168 38.7877 8.76819 35.7758 14.2076 36.8557C19.6471 37.9357 22.7977 29.6262 18.9761 26.9901Z" stroke="#CE7500" stroke-width="0.64375" stroke-miterlimit="10"/>
    <path d="M13.2841 44.5859C13.2841 52.5423 22.1038 60.2662 32.9835 60.2662C43.8632 60.2662 52.6829 52.5423 52.6829 44.5859C52.6829 33.7168 46.0601 21.0061 32.9835 21.0061C20.071 21.0061 13.2841 33.8776 13.2841 44.5859Z" fill="#FBCA1D"/>
    <path d="M18.9576 35.1442C18.9576 39.2342 24.8037 42.0689 32.9835 42.0689C41.1631 42.0689 47.009 39.2342 47.009 35.1442C47.009 30.5471 40.7078 26.3682 32.9835 26.3682C25.2702 26.3682 18.9576 30.3678 18.9576 35.1442Z" fill="#FBDF39"/>
    <path d="M18.4746 28.5339C20.3964 32.4429 25.7891 35.858 32.9764 35.858C40.2116 35.858 46.2338 33.2032 48.1125 29.2557C43.9909 23.2682 39.6105 23.2682 32.9764 23.2682C26.4074 23.2682 22.4881 24.4712 18.4746 28.5339Z" fill="#FFA912"/>
    <path d="M13.2836 44.5853C13.2836 52.5418 22.1033 60.2656 32.983 60.2656C43.8627 60.2656 52.6824 52.5418 52.6824 44.5853C52.6824 33.7163 46.0596 21.0057 32.983 21.0057C20.0705 21.0057 13.2836 33.877 13.2836 44.5853Z" stroke="#CE7500" stroke-width="0.64375" stroke-miterlimit="10"/>
    <path d="M19.141 20.767C18.5237 26.8974 24.5877 32.8932 32.7302 33.713C40.8727 34.533 48.0104 29.8663 48.6277 23.7358C49.471 15.3612 45.44 5.66968 35.6531 4.68411C25.9894 3.71109 19.9718 12.5161 19.141 20.767Z" fill="#FBCA1D"/>
    <path d="M21.8462 18.7975C21.4193 23.0368 27.1579 26.682 33.6127 27.4487C41.7957 28.4205 46.1176 25.3246 46.5445 21.0853C47.1276 15.2944 43.2965 7.08421 35.5231 6.3015C27.8473 5.52863 22.4208 13.0921 21.8462 18.7975Z" fill="#FDE63B"/>
    <path d="M25.6246 11.762C25.3606 14.3831 29.3208 16.9283 34.4696 17.4468C39.6186 17.9652 44.0067 16.2607 44.2705 13.6395C44.5345 11.0183 40.6632 6.86406 35.5115 6.37459C30.2038 5.87015 25.8885 9.14081 25.6246 11.762Z" fill="#FCFC9D"/>
    <path d="M21.7454 28.1197C19.901 26.174 18.9096 23.0655 19.1411 20.7675C19.9719 12.5166 25.9894 3.7116 35.6532 4.68461C45.4399 5.67013 49.4708 15.3618 48.6276 23.7364C48.4113 25.8847 47.3944 27.8531 45.8142 29.4687C45.8142 29.4687 45.6098 29.6857 45.2513 30.0085" stroke="#CE7500" stroke-width="0.64375" stroke-linecap="round" stroke-linejoin="round"/>
    <path d="M24.4621 19.7114C24.2782 21.5384 25.2517 23.1327 26.6366 23.2721C28.0213 23.4116 29.2933 22.0435 29.4772 20.2165C29.6612 18.3895 28.6878 16.7953 27.3029 16.6559C25.918 16.5164 24.6461 17.8843 24.4621 19.7114Z" fill="#111111"/>
    <path d="M25.1285 20.5123C25.0617 21.175 25.6667 22.5286 26.6993 22.6326C27.7319 22.7366 28.5945 21.5308 28.6612 20.8682C28.7683 19.805 27.9335 20.7335 26.9009 20.6295C25.8683 20.5255 25.2403 19.4009 25.1285 20.5123Z" fill="#474848"/>
    <path d="M25.7543 18.1925C25.7005 18.7261 26.3605 18.3616 27.1214 18.4382C27.8822 18.5147 28.4546 19.0154 28.5096 18.4699C28.5438 18.13 27.9942 17.3992 27.2334 17.3226C26.4726 17.246 25.7886 17.8528 25.7543 18.1925Z" fill="#F5F5F5"/>
    <path d="M37.3359 21.008C37.1519 22.835 38.1256 24.4293 39.5105 24.5687C40.8952 24.7082 42.1672 23.3401 42.3511 21.5132C42.5351 19.6861 41.5614 18.0918 40.1765 17.9524C38.7916 17.8129 37.5198 19.1809 37.3359 21.008Z" fill="#111111"/>
    <path d="M38.0037 21.8086C37.937 22.4714 38.542 23.825 39.5746 23.929C40.6072 24.033 41.4697 22.8272 41.5364 22.1646C41.6435 21.1014 40.8089 22.0299 39.7763 21.9259C38.7437 21.822 38.1155 20.6973 38.0037 21.8086Z" fill="#474848"/>
    <path d="M38.6302 19.4883C38.5764 20.0219 39.2364 19.6574 39.9972 19.734C40.758 19.8106 41.3306 20.3113 41.3856 19.7658C41.4197 19.4259 40.8701 18.695 40.1092 18.6184C39.3484 18.5419 38.6644 19.1486 38.6302 19.4883Z" fill="#F5F5F5"/>
    <path d="M35.5848 24.0589C35.5848 24.0589 36.1032 25.5507 35.4236 27.4996C34.8329 29.1935 33.3611 31.985 31.1577 31.5515C28.2204 30.9738 28.2264 26.5823 31.1745 22.679L35.5848 24.0589Z" fill="#FBCA1D"/>
    <path d="M29.9713 25.3071C29.8663 26.2261 30.0409 28.1075 30.5225 28.9157C30.9653 29.6589 31.5536 30.6844 32.1018 30.7319C32.6161 30.7763 33.316 30.4036 34.3389 29.1151C34.9669 28.3241 35.4657 26.7721 35.5767 25.8011C35.7783 24.0385 34.617 21.7991 33.1221 21.6699C31.7502 21.5514 30.4127 23.2287 30.047 24.8687C30.0137 25.0156 29.988 25.1617 29.9713 25.3071Z" fill="#943903"/>
    <path d="M30.1932 24.899C32.1272 25.5375 33.6224 25.0417 34.1202 24.8838C34.0736 25.288 35.942 24.8785 35.3772 26.0249C34.8125 27.1714 33.166 28.7613 32.7054 29.3593C32.2835 29.9071 32.0773 29.8289 31.8561 29.255C31.7331 28.9358 29.89 25.4528 30.1932 24.899Z" fill="#9B0B0B"/>
    <path d="M30.1932 24.899C32.1272 25.5375 33.6224 25.0417 34.1202 24.8838C34.0736 25.288 35.942 24.8785 35.3772 26.0249C34.8125 27.1714 33.166 28.7613 32.7054 29.3593C32.2835 29.9071 32.0773 29.8289 31.8561 29.255C31.7331 28.9358 29.89 25.4528 30.1932 24.899Z" stroke="#CE7500" stroke-width="0.241406"/>
    <path d="M30.3348 25.5263L32.5055 26.0308C32.7933 26.11 32.9885 26.1228 33.3439 26.1154L35.412 26.0392C35.6496 25.8229 35.7828 25.527 35.7747 25.218C35.7318 23.5518 34.7256 21.6918 33.3006 21.5483C31.8578 21.4029 30.4852 23.0669 30.132 24.7118C30.0862 24.9948 30.1586 25.2853 30.3348 25.5263Z" fill="#F78D15"/>
    <path d="M32.0048 21.872C32.3673 23.6106 32.6346 24.273 32.5166 26.0155L32.5178 26.0184C32.725 26.0791 33.0456 26.1263 33.3542 26.0997C33.889 24.2479 34.0488 23.7806 34.5219 22.1268C34.1723 21.7964 33.7626 21.5788 33.3103 21.5332C32.858 21.4877 32.4146 21.6193 32.0048 21.872Z" fill="#F1B623"/>
    <path d="M5.35093 36.7155C5.35093 57.3107 18.6073 69.6997 34.5627 69.6997C50.4199 69.6997 63.6103 57.4636 63.7712 37.0953L60.4237 40.3302L58.4378 37.855L56.4502 42.0763L54.0522 44.9732L50.988 41.0335L49.8035 42.0763L45.7253 38.6838L43.0425 38.1044L41.5055 41.0335V44.2281L38.6553 42.49L36.6694 44.3118L36.0063 46.6293L30.5441 39.9166L27.2416 41.8623C27.2416 41.8623 26.82 38.5132 24.6683 35.7837L19.1223 37.6892L17.6321 41.6627L14.2395 44.3938L12.3469 39.4273L10.5975 40.6842L9.68658 43.7324L5.35093 36.7155Z" fill="#EBE9E0"/>
    <path d="M5.35093 36.7157C5.35093 57.3109 18.6073 69.6998 34.5627 69.6998C50.4199 69.6998 63.6103 57.4638 63.7712 37.0955L62.1281 38.9946C60.4897 56.9504 48.4548 66.9494 34.5627 66.9494C20.9538 66.9494 9.11203 57.3785 7.10836 40.0809L5.35093 36.7157Z" fill="#FBF5E6"/>
    <g opacity="0.32">
        <path d="M5.35063 36.7157C5.35063 57.3109 18.607 69.6998 34.5624 69.6998C50.4699 69.6998 61.5679 57.8162 63.4169 41.9446C59.1456 51.8857 50.183 57.5394 39.9876 57.5394C29.9387 57.5394 21.0887 52.0482 16.7466 42.3759L14.2392 44.394L12.3466 39.4275L10.5972 40.6844L9.68628 43.7326L5.35063 36.7157Z" fill="#B7B49E"/>
    </g>
    <path d="M23.7589 38.7976C25.9686 41.5271 26.3661 45.2125 26.3661 45.2125L30.1143 42.9996L36.6484 50.6345L37.7734 46.8042L39.1606 45.5441L42.9604 47.5059V42.5732L44.0805 40.8656L45.8701 41.6059L45.7269 39.488L43.0441 38.9086L41.5071 41.8377V45.0323L38.6569 43.2942L36.6709 45.116L36.0079 47.4335L30.5457 40.7208L27.2432 42.6665C27.2432 42.6665 26.8216 39.3174 24.6698 36.5879L23.7589 38.7976Z" fill="#FBF5E6"/>
    <path d="M5.35093 37.5203C5.35093 38.7467 5.3976 39.944 5.49094 41.1108L9.00903 46.6551L10.6796 46.0822L11.7418 42.8329L13.6859 47.7994L18.5446 44.3714L20.0751 40.3979L23.7573 38.7982C25.967 41.5277 26.3645 45.2131 26.3645 45.2131L30.1128 43.0003L36.6468 50.6351L37.7718 46.8048L39.1591 45.5447L42.9588 47.5065V42.5738L44.0789 40.8662L45.8686 41.6065L49.7359 44.8382L50.7916 43.9562L53.9396 47.896L57.3691 44.1944L58.7661 41.2605L60.2902 43.2722L63.6876 40.3512C63.7358 39.5481 63.7648 38.7306 63.7712 37.9001L60.4237 41.135L58.4378 38.6598L56.4502 42.8812L54.0522 45.778L50.988 41.8383L49.8035 42.8812L45.7253 39.4886L43.0425 38.9092L41.5055 41.8383V45.0329L38.6553 43.2948L36.6694 45.1166L36.0063 47.4341L30.5441 40.7214L27.2416 42.6671C27.2416 42.6671 26.82 39.318 24.6683 36.5885L19.1223 38.494L17.6321 42.4675L14.2395 45.1987L12.3469 40.2321L10.5975 41.489L9.68658 44.5372L5.35093 37.5203Z" fill="#FBF5E6"/>
    <path d="M5.35088 36.7157C5.35088 57.3104 18.6071 70.0212 34.5626 70.0212C50.518 70.0212 63.7744 57.3104 63.7744 36.7157" stroke="#B7B49E" stroke-width="0.64375" stroke-linecap="round" stroke-linejoin="round"/>
    <path d="M63.7335 36.5146C63.7335 36.6423 60.3833 40.1291 60.3833 40.1291L58.3973 37.6539L56.4097 41.8753L54.0118 44.7722L50.9475 40.8324L49.763 41.8753L45.6849 38.4827L43.002 37.9034L41.4651 40.8324V44.027L38.6149 42.2889L36.6289 44.1107L35.9658 46.4282L30.5038 39.7155L27.2014 41.6613C27.2014 41.6613 26.7797 38.3121 24.6278 35.5826L19.0819 37.4881L17.5916 41.4617L14.1992 44.1928L12.3064 39.2263L10.557 40.4832L9.64613 43.5313L5.31031 36.5141" stroke="#B7B49E" stroke-width="0.64375" stroke-linecap="round" stroke-linejoin="round"/>
    <path d="M35.1518 46.5045L37.4463 51.3999L39.6241 52.174L41.7565 54.063L41.6213 55.0557L40.7595 55.2091L38.9271 53.212L37.9757 52.755L37.5016 54.8246L36.5963 55.9241L35.6929 56.2771L35.6835 54.8972L36.2867 53.6331L36.5109 51.7351L34.1134 46.7841L35.1518 46.5045Z" fill="#FCF5E6"/>
    <path d="M36.2464 45.9855L38.1324 51.0748L37.1703 54.187L36.4108 55.1802" stroke="#B7B49E" stroke-width="0.502097" stroke-linecap="round" stroke-linejoin="round"/>
    <path d="M35.3102 45.7343L37.6388 50.9846L37.1713 54.1872L36.5109 55.1985" stroke="#B7B49E" stroke-width="0.502097" stroke-linecap="round" stroke-linejoin="round"/>
    <path d="M38.1338 51.0746L39.9578 51.8163L41.5005 53.6467" stroke="#B7B49E" stroke-width="0.412" stroke-linecap="round" stroke-linejoin="round"/>
    <path d="M38.2062 50.6791L40.0302 51.4207L41.5005 53.6469" stroke="#B7B49E" stroke-width="0.412" stroke-linecap="round" stroke-linejoin="round"/>
</svg>
